<?xml version="1.0" standalone="no"?>
<!DOCTYPE svg PUBLIC "-//W3C//DTD SVG 20010904//EN"
 "http://www.w3.org/TR/2001/REC-SVG-20010904/DTD/svg10.dtd">
<svg version="1.0" xmlns="http://www.w3.org/2000/svg"
 width="1280.000000pt" height="198.000000pt" viewBox="0 0 1280.000000 198.000000"
 preserveAspectRatio="xMidYMid meet">

<g transform="translate(0.000000,198.000000) scale(0.100000,-0.100000)"
fill="#000000" stroke="none">
<path d="M0 990 l0 -990 6400 0 6400 0 0 990 0 990 -6400 0 -6400 0 0 -990z
m2120 920 c0 -15 -181 -783 -186 -792 -7 -10 -821 -11 -827 0 -3 4 4 43 14 86
18 72 19 99 4 84 -13 -13 -135 -507 -135 -546 0 -9 111 -12 436 -12 345 0 435
-3 431 -12 -2 -7 -33 -149 -68 -315 l-64 -303 -622 0 c-693 0 -722 2 -850 65
-87 43 -153 112 -184 193 -18 50 -20 70 -15 157 8 141 26 236 116 601 112 453
143 530 256 633 95 87 242 143 426 160 124 12 1268 13 1268 1z m4478 -11 c26
-7 51 -15 55 -19 5 -4 7 -27 5 -51 l-3 -44 -22 37 c-12 20 -36 44 -54 53 -65
34 -149 -6 -149 -71 0 -43 25 -66 97 -88 85 -26 119 -50 138 -98 35 -89 -10
-167 -109 -188 -55 -11 -125 -2 -153 21 -12 10 -29 106 -20 115 3 3 14 -14 26
-38 26 -54 65 -78 126 -78 63 0 105 39 105 98 0 51 -33 81 -119 107 -107 32
-148 90 -120 169 11 33 23 46 59 64 50 25 72 27 138 11z m1695 -3 c121 -44
180 -170 142 -302 -44 -151 -222 -220 -361 -139 -57 33 -92 86 -106 161 -35
189 145 344 325 280z m3164 2 c52 -12 53 -13 59 -56 6 -41 -3 -72 -14 -44 -11
33 -66 82 -97 88 -50 9 -107 -22 -119 -63 -12 -45 10 -75 71 -97 150 -54 168
-71 168 -161 0 -49 -4 -68 -20 -85 -34 -37 -76 -53 -141 -54 -75 0 -109 19
-119 66 -4 18 -9 41 -11 51 -9 32 16 18 30 -18 40 -96 198 -101 226 -7 22 73
2 93 -142 146 -26 10 -59 32 -74 49 -22 27 -25 38 -21 80 5 55 28 85 80 104
42 15 61 15 124 1z m360 0 c47 -11 53 -16 53 -38 0 -14 3 -35 6 -47 10 -35
-11 -27 -35 12 -55 94 -201 75 -201 -26 0 -36 33 -62 118 -90 79 -26 118 -61
128 -115 21 -113 -90 -198 -215 -164 -53 14 -67 30 -76 85 -8 58 0 69 19 24
24 -57 59 -82 120 -87 51 -4 57 -2 86 26 23 24 30 39 30 69 0 51 -25 74 -112
106 -91 33 -115 51 -127 92 -18 66 20 135 85 155 41 12 61 12 121 -2z m-9047
-44 c0 -27 -4 -43 -10 -39 -5 3 -10 13 -10 20 0 23 -34 35 -100 35 l-60 0 2
-202 3 -203 30 -15 30 -15 -47 -3 c-27 -2 -69 -2 -95 0 l-48 3 30 15 30 15 3
203 2 202 -63 0 c-66 0 -83 -9 -102 -55 -8 -18 -9 -17 -13 9 -2 15 -1 39 2 52
l6 24 205 0 205 0 0 -46z m185 31 c-45 -32 -46 -35 -43 -113 l3 -77 128 -3
127 -3 0 80 c0 81 -2 85 -45 116 -18 13 -11 14 69 15 l88 0 -31 -29 -31 -29 0
-174 c0 -141 3 -178 16 -196 8 -12 22 -22 30 -22 8 0 14 -4 14 -10 0 -6 -33
-10 -80 -10 -76 0 -103 11 -60 25 26 8 32 33 28 130 l-3 80 -125 0 -125 0 -3
-84 c-3 -87 11 -131 43 -131 8 0 15 -4 15 -10 0 -6 -33 -10 -80 -10 -44 0 -80
3 -80 6 0 3 11 15 25 26 l25 19 0 184 c0 154 -3 186 -16 199 -8 9 -22 16 -30
16 -8 0 -14 5 -14 10 0 6 36 10 88 10 78 -1 85 -2 67 -15z m675 -17 c0 -18 -5
-40 -10 -48 -8 -12 -10 -11 -10 6 0 12 -6 26 -12 32 -19 15 -101 25 -137 17
l-31 -7 0 -89 0 -89 65 0 c54 0 67 3 77 20 21 34 28 23 28 -45 0 -37 -4 -65
-10 -65 -5 0 -10 6 -10 14 0 31 -30 46 -91 46 l-60 0 3 -97 3 -98 35 -3 c56
-6 116 7 155 34 20 13 38 24 40 24 2 0 -1 -14 -7 -30 -18 -54 -38 -60 -190
-60 -76 0 -138 3 -138 6 0 3 10 14 23 24 21 17 22 27 25 177 4 175 -3 223 -36
238 -12 5 -22 13 -22 17 0 5 70 8 155 8 l155 0 0 -32z m356 7 c-26 -24 -26
-26 -25 -157 1 -166 12 -215 58 -245 65 -44 175 -22 208 41 25 47 32 306 9
341 -9 14 -23 25 -31 25 -8 0 -15 5 -15 10 0 6 28 10 65 10 68 0 79 -7 45 -28
-17 -11 -20 -23 -21 -100 -1 -147 -14 -250 -36 -280 -28 -39 -99 -72 -153 -72
-61 0 -129 35 -155 80 -17 30 -21 58 -25 200 -5 159 -6 165 -27 175 -41 17
-25 25 53 25 l77 0 -27 -25z m594 -162 l165 -186 3 152 c3 162 -3 187 -43 197
-48 12 -24 24 47 24 l72 0 -22 -20 c-21 -20 -22 -27 -22 -235 0 -130 -4 -215
-10 -215 -5 0 -80 80 -167 177 l-158 177 -3 -153 c-3 -154 2 -181 34 -181 8 0
14 -4 14 -10 0 -6 -31 -10 -72 -10 l-73 0 31 25 31 24 7 150 c8 178 0 223 -44
246 -39 20 -38 25 8 25 35 -1 44 -8 202 -187z m445 172 c-11 -8 -26 -19 -32
-25 -21 -17 -18 -358 3 -388 8 -12 22 -22 30 -22 8 0 14 -4 14 -10 0 -6 -33
-10 -80 -10 -44 0 -80 3 -80 6 0 3 11 15 25 26 l25 19 0 180 c0 179 -6 219
-35 219 -7 0 -17 5 -20 10 -4 6 26 10 82 10 79 -1 86 -2 68 -15z m161 -4 c-17
-18 -14 -27 55 -195 40 -96 75 -173 79 -171 4 3 35 72 69 154 61 150 75 211
47 211 -8 0 -18 5 -21 10 -4 6 17 10 56 10 61 0 62 0 45 -19 -10 -11 -59 -117
-110 -236 -50 -119 -96 -217 -101 -218 -6 -1 -48 90 -95 203 -100 238 -106
250 -125 250 -8 0 -15 5 -15 10 0 6 29 10 67 10 64 0 66 0 49 -19z m684 -20
c0 -22 -4 -43 -10 -46 -5 -3 -10 3 -10 13 0 11 -6 24 -13 30 -19 16 -90 25
-132 18 l-35 -7 0 -89 0 -90 65 0 c54 0 67 3 77 20 21 34 28 23 28 -45 0 -37
-4 -65 -10 -65 -5 0 -10 9 -10 20 0 27 -30 40 -95 40 l-56 0 3 -97 3 -98 35
-3 c57 -6 116 7 156 34 20 14 38 23 41 20 8 -8 -27 -65 -46 -76 -20 -10 -291
-14 -291 -4 0 3 10 14 23 24 21 17 22 26 25 195 3 148 1 180 -13 201 -8 13
-22 24 -30 24 -8 0 -15 5 -15 10 0 6 58 10 155 10 l155 0 0 -39z m324 25 c45
-19 66 -52 66 -105 0 -38 -5 -49 -38 -80 l-39 -36 69 -102 c48 -72 76 -105 93
-109 34 -9 31 -24 -5 -24 -52 0 -78 21 -144 121 -65 98 -67 99 -106 99 l-40 0
0 -82 c0 -83 14 -118 46 -118 7 0 16 -4 19 -10 4 -6 -27 -10 -85 -10 l-92 0
31 29 31 29 0 181 c0 132 -3 183 -12 191 -7 6 -22 17 -33 25 -18 13 -8 14 93
15 74 0 124 -5 146 -14z m681 -10 l-30 -24 -3 -160 c-4 -177 3 -222 36 -237
40 -18 23 -25 -58 -25 -76 0 -103 11 -60 25 29 9 31 29 28 230 -3 175 -4 180
-26 191 -42 21 -35 24 54 24 l89 0 -30 -24z m479 8 c9 -24 7 -74 -3 -74 -5 0
-12 11 -15 25 -8 30 -32 37 -107 33 l-54 -3 -3 -180 c-1 -99 0 -190 3 -202 3
-13 16 -25 30 -29 51 -13 22 -24 -60 -24 -50 0 -85 4 -85 10 0 6 8 10 18 10
39 0 42 17 42 222 l0 198 -61 0 c-71 0 -94 -10 -103 -45 -10 -41 -22 -21 -18
29 l4 46 203 0 c176 0 204 -2 209 -16z m156 10 c0 -4 -7 -12 -17 -19 -15 -11
-12 -20 33 -93 27 -45 54 -82 59 -82 13 0 95 133 95 154 0 9 -12 22 -27 29
-26 11 -24 12 36 15 60 3 92 -5 63 -16 -8 -2 -45 -52 -83 -110 l-70 -105 3
-101 c3 -94 5 -102 26 -111 40 -18 23 -25 -60 -25 l-83 1 28 20 c26 20 27 23
27 117 l0 97 -63 100 c-34 55 -73 104 -85 110 -39 17 -24 25 48 25 39 0 70 -3
70 -6z m1290 -33 c0 -22 -4 -43 -10 -46 -5 -3 -10 3 -10 13 0 11 -6 24 -13 30
-19 16 -90 25 -132 18 l-35 -7 0 -89 0 -90 64 0 c59 0 66 2 85 28 l20 27 1
-73 c0 -46 -4 -71 -10 -67 -5 3 -10 13 -10 20 0 23 -37 36 -93 33 l-52 -3 -3
-75 c-4 -95 2 -118 33 -126 50 -12 23 -24 -56 -24 l-81 0 27 31 26 32 -3 185
c-2 124 -7 187 -14 189 -6 2 -20 10 -30 18 -17 13 0 14 139 15 l157 0 0 -39z
m620 -8 c-1 -40 -2 -45 -12 -28 -19 36 -41 45 -105 45 l-63 0 0 -201 0 -201
30 -11 c51 -19 34 -27 -60 -27 -49 0 -90 2 -90 6 0 3 13 10 30 15 39 14 42 33
38 244 l-3 170 -63 3 c-69 3 -88 -5 -103 -46 -14 -37 -22 -19 -15 33 l7 45
205 0 204 0 0 -47z m340 8 c0 -46 -17 -64 -22 -24 -3 25 -8 29 -55 37 -28 5
-67 6 -87 2 l-36 -7 0 -89 0 -90 64 0 c59 0 66 2 85 28 l20 27 1 -73 c0 -46
-4 -71 -10 -67 -5 3 -10 13 -10 20 0 23 -37 36 -93 33 l-52 -3 -3 -75 c-5
-115 -2 -120 64 -120 60 0 116 19 153 53 l24 22 -7 -30 c-4 -16 -18 -40 -32
-52 -24 -22 -34 -23 -166 -23 l-142 0 27 28 27 28 0 182 c0 133 -3 184 -12
192 -7 6 -22 17 -33 25 -18 13 -2 14 138 15 l157 0 0 -39z m291 -146 l164
-185 3 147 c1 82 0 158 -3 170 -3 12 -19 27 -37 34 -33 13 -32 14 36 17 37 2
70 1 73 -2 3 -2 -5 -14 -16 -25 -20 -20 -21 -32 -21 -231 0 -115 -4 -210 -9
-210 -5 0 -78 79 -162 175 l-154 174 -8 -57 c-4 -31 -6 -102 -5 -157 3 -92 5
-100 26 -111 41 -20 36 -24 -36 -24 -74 0 -89 8 -49 25 28 13 35 57 36 227 1
140 -6 173 -44 190 -35 16 -31 28 9 28 31 0 46 -14 197 -185z m510 0 l164
-184 3 147 c1 81 0 157 -3 169 -3 12 -19 27 -37 34 -33 13 -32 14 36 17 37 2
70 1 73 -2 3 -2 -5 -14 -16 -25 -20 -20 -21 -32 -21 -231 0 -115 -4 -210 -9
-210 -5 0 -78 79 -162 175 l-154 174 -8 -67 c-4 -37 -6 -107 -5 -157 3 -82 5
-90 26 -101 41 -20 36 -24 -36 -24 -74 0 -89 8 -49 25 28 13 35 57 36 227 1
140 -6 173 -44 190 -35 16 -31 28 8 28 31 0 47 -15 198 -185z m599 146 c0 -22
-4 -43 -10 -46 -5 -3 -10 3 -10 13 0 11 -6 24 -13 30 -19 16 -90 25 -132 18
l-35 -7 0 -89 0 -90 65 0 c54 0 67 3 77 20 21 34 28 23 28 -45 0 -37 -4 -65
-10 -65 -5 0 -10 9 -10 20 0 27 -30 40 -95 40 l-56 0 3 -97 3 -98 35 -3 c57
-6 116 7 156 34 20 14 38 23 41 20 8 -8 -27 -65 -46 -76 -20 -10 -291 -14
-291 -4 0 3 10 14 23 24 21 17 22 26 25 195 3 148 1 180 -13 201 -8 13 -22 24
-30 24 -8 0 -15 5 -15 10 0 6 58 10 155 10 l155 0 0 -39z m1090 0 c0 -22 -4
-43 -10 -46 -5 -3 -10 3 -10 13 0 11 -6 24 -13 30 -19 16 -90 25 -132 18 l-35
-7 0 -89 0 -90 64 0 c59 0 66 2 85 28 l20 27 1 -72 c0 -42 -4 -73 -10 -73 -5
0 -10 9 -10 20 0 27 -30 40 -95 40 l-56 0 3 -97 3 -98 35 -3 c57 -6 116 7 156
34 20 14 38 23 41 20 8 -8 -27 -65 -46 -76 -19 -10 -291 -15 -291 -5 0 2 11
15 25 29 25 25 25 27 25 198 0 141 -3 178 -16 196 -8 12 -22 22 -30 22 -8 0
-14 5 -14 10 0 6 58 10 155 10 l155 0 0 -39z m379 12 c0 -16 -4 -37 -9 -48 -8
-20 -9 -19 -9 1 -1 12 -7 26 -14 32 -17 14 -110 26 -141 18 -25 -6 -26 -8 -26
-96 l0 -90 65 0 c54 0 67 3 77 20 7 11 16 20 20 20 10 0 8 -119 -3 -125 -5 -4
-9 1 -9 9 0 31 -30 46 -91 46 l-60 0 3 -97 3 -98 35 -3 c56 -6 116 7 155 34
20 13 38 24 40 24 10 0 -11 -43 -32 -65 -25 -24 -29 -25 -164 -25 -77 0 -139
3 -139 8 0 4 9 13 20 20 20 12 20 21 18 210 -3 193 -3 197 -25 207 -13 5 -23
13 -23 17 0 5 70 8 155 8 l155 0 -1 -27z m39 -641 c3 -9 -1033 -12 -5157 -12
-4582 0 -5161 2 -5161 15 0 13 577 15 5157 13 4114 -2 5157 -6 5161 -16z
m-7689 -602 c89 -228 174 -429 187 -447 15 -20 40 -37 64 -44 22 -7 40 -18 40
-24 0 -10 -38 -13 -150 -12 -83 0 -153 4 -156 9 -3 4 11 16 31 25 19 9 38 26
41 38 6 25 -81 255 -104 272 -11 9 -65 13 -187 13 -154 0 -174 -2 -188 -18
-25 -28 -107 -213 -107 -243 0 -29 22 -52 63 -65 59 -19 25 -29 -103 -30 -141
-1 -157 7 -93 41 48 25 48 26 273 505 102 217 189 401 194 408 7 12 10 12 21
0 6 -7 85 -200 174 -428z m2441 10 c90 -228 172 -428 184 -445 27 -40 45 -53
84 -61 17 -3 32 -12 32 -19 0 -10 -35 -13 -155 -13 -162 1 -189 9 -122 39 22
10 33 22 35 39 3 29 -72 237 -95 263 -14 15 -37 17 -188 17 -121 0 -176 -4
-188 -12 -16 -13 -75 -134 -103 -211 -18 -52 -3 -83 48 -99 21 -6 38 -17 38
-24 0 -10 -29 -13 -130 -12 -138 2 -156 9 -97 41 17 10 41 32 53 50 11 18 105
212 208 432 197 420 213 452 226 439 4 -5 81 -196 170 -424z m4853 418 c3 -7
78 -197 166 -423 89 -226 173 -426 186 -446 16 -26 37 -41 66 -51 83 -28 58
-36 -105 -35 -163 0 -190 9 -124 38 18 8 35 23 36 33 5 25 -77 245 -100 268
-16 16 -37 18 -182 18 -90 0 -172 -3 -181 -6 -17 -7 -70 -106 -106 -196 -27
-69 -20 -94 36 -119 25 -11 45 -24 45 -29 0 -11 -259 -9 -266 2 -3 4 8 14 23
22 15 8 38 25 51 38 18 20 255 512 402 836 28 61 43 75 53 50z m-2930 -13
c275 -58 431 -355 336 -639 -50 -149 -172 -267 -318 -310 -62 -18 -203 -21
-270 -5 -166 38 -306 181 -342 349 -6 29 -9 99 -7 155 3 97 6 107 46 187 106
215 316 314 555 263z m1058 1 c182 -39 314 -175 355 -364 7 -37 14 -85 14
-107 0 -116 -54 -255 -133 -341 -96 -106 -208 -154 -356 -154 -156 0 -268 46
-361 148 -86 93 -121 193 -121 343 0 148 50 260 161 362 119 110 270 149 441
113z m-7440 -12 c30 -9 79 -30 109 -47 30 -17 67 -30 81 -29 25 2 26 0 32 -65
15 -159 4 -178 -47 -82 -40 73 -114 145 -184 177 -71 33 -179 36 -259 9 -302
-105 -309 -668 -11 -833 48 -26 62 -29 148 -29 81 0 103 4 150 26 67 31 120
76 162 136 43 63 56 45 33 -46 l-17 -71 -72 -35 c-124 -62 -263 -79 -399 -50
-209 44 -338 219 -337 459 1 227 124 418 310 477 72 23 226 25 301 3z m8502 1
c31 -8 83 -28 116 -44 33 -17 67 -28 78 -25 12 3 23 2 26 -3 3 -4 8 -52 12
-105 6 -82 5 -98 -7 -98 -8 0 -25 23 -38 51 -32 68 -123 151 -197 180 -75 29
-186 31 -260 6 -138 -48 -233 -208 -233 -392 1 -197 85 -365 222 -440 48 -27
61 -30 148 -30 84 0 102 3 153 29 88 43 97 63 97 222 0 143 -3 151 -64 171
-17 5 -32 15 -34 21 -3 9 33 12 137 12 81 0 141 -4 141 -9 0 -5 -13 -19 -30
-31 l-30 -21 0 -147 c0 -81 -4 -152 -8 -158 -13 -21 -212 -114 -275 -129 -166
-39 -339 6 -441 115 -196 210 -155 609 78 769 98 68 273 92 409 56z m-7866
-12 c2 -6 -12 -16 -31 -23 -20 -6 -45 -23 -56 -37 -19 -24 -20 -38 -18 -182
l3 -156 244 -3 c180 -2 247 1 258 10 12 10 14 39 11 159 -3 140 -4 149 -27
173 -14 15 -39 30 -55 34 -17 5 -32 15 -34 24 -3 13 18 15 160 13 127 -1 163
-5 163 -15 0 -7 -14 -18 -32 -24 -71 -24 -68 -7 -71 -409 -3 -417 -2 -420 76
-447 23 -8 42 -20 42 -27 0 -10 -38 -13 -165 -13 -134 0 -165 3 -165 14 0 7
13 19 29 26 16 6 40 23 53 37 22 23 23 33 26 185 2 88 1 171 -2 184 l-6 24
-253 -2 -252 -3 0 -186 c0 -211 2 -218 77 -241 21 -6 38 -17 38 -25 0 -10 -34
-13 -165 -13 -130 0 -165 3 -165 13 0 7 16 21 35 30 71 34 70 29 70 433 l0
362 -24 26 c-14 15 -42 31 -63 36 -35 10 -45 19 -33 32 3 2 78 4 167 4 112 -1
162 -4 165 -13z m2385 -69 c4 -43 3 -83 -1 -87 -14 -14 -31 1 -31 27 0 31 -45
74 -84 81 -17 3 -78 5 -136 3 l-105 -3 -3 -388 c-1 -252 1 -395 8 -407 6 -11
33 -27 60 -37 89 -32 65 -41 -117 -45 -93 -2 -174 -2 -181 0 -25 8 -5 27 41
40 80 23 78 7 75 448 l-3 389 -128 3 -128 3 -29 -29 c-15 -16 -34 -47 -41 -70
-7 -25 -18 -42 -27 -42 -12 0 -14 13 -8 78 4 42 9 86 12 97 5 20 13 20 412 19
l407 -1 7 -79z m882 61 c3 -11 6 -51 6 -88 0 -76 -15 -87 -35 -26 -7 19 -26
44 -45 57 -29 20 -45 22 -149 22 -78 0 -121 -4 -129 -12 -18 -18 -17 -743 1
-778 12 -24 31 -36 91 -60 53 -20 13 -28 -159 -31 -143 -3 -170 -1 -170 11 0
8 14 19 30 24 57 17 74 29 85 59 15 45 14 759 -2 775 -8 8 -51 12 -129 12
-111 0 -119 -1 -148 -25 -16 -14 -35 -42 -42 -63 -13 -43 -24 -57 -36 -49 -8
5 1 153 11 182 2 6 148 10 409 10 398 0 406 0 411 -20z m1082 -31 c28 -30 179
-198 335 -374 224 -252 286 -315 293 -303 5 9 7 143 4 302 -4 228 -8 293 -21
323 -15 37 -47 59 -100 72 -16 4 -27 12 -25 18 5 14 267 18 276 4 3 -5 0 -12
-7 -14 -7 -2 -24 -14 -39 -27 l-27 -23 -5 -434 c-4 -370 -7 -433 -20 -433 -8
0 -153 158 -324 350 -170 193 -312 351 -316 353 -8 3 -20 -283 -20 -475 0
-123 2 -134 23 -158 12 -15 37 -30 55 -33 18 -4 34 -11 35 -17 1 -6 -52 -11
-140 -13 -91 -2 -143 1 -143 8 0 5 18 19 40 30 70 36 72 42 82 318 16 417 4
482 -94 531 -70 34 -63 51 19 51 l67 0 52 -56z"/>
<path d="M955 1820 c-216 -12 -315 -38 -424 -111 -67 -45 -119 -114 -156 -209
-33 -84 -179 -668 -206 -824 -29 -169 -29 -250 -2 -302 43 -81 104 -126 218
-160 54 -16 123 -18 663 -21 331 -2 602 -2 602 1 0 3 20 101 45 217 25 117 45
214 45 216 0 1 -193 3 -430 3 -236 0 -430 3 -430 8 0 4 39 172 87 375 l88 367
102 0 c57 0 103 -3 103 -7 0 -5 -9 -43 -19 -86 l-18 -77 320 2 320 3 68 290
c38 160 69 298 69 308 0 16 -28 17 -457 15 -252 0 -516 -4 -588 -8z m965 -69
c0 -5 -25 -114 -55 -242 -30 -128 -55 -234 -55 -236 0 -1 -112 -3 -250 -3
-284 0 -260 -10 -235 95 8 33 15 66 15 73 0 10 -37 12 -166 10 l-167 -3 -103
-434 c-57 -239 -104 -436 -104 -438 0 -2 194 -3 431 -3 l431 0 -5 -22 c-3 -13
-18 -83 -33 -156 l-28 -133 -585 3 -586 3 -59 24 c-72 29 -131 80 -147 128
-24 74 4 245 111 673 103 416 122 464 210 544 70 63 166 97 320 115 105 12
1060 13 1060 2z"/>
<path d="M8136 1876 c-142 -53 -165 -255 -43 -384 79 -82 228 -58 281 47 52
100 12 252 -84 323 -34 25 -106 31 -154 14z"/>
<path d="M6057 1873 c-4 -3 -7 -48 -7 -100 l0 -93 54 0 c74 0 106 25 106 84 0
50 -21 83 -66 102 -36 15 -76 18 -87 7z"/>
<path d="M4726 828 c-13 -29 -49 -107 -80 -172 -31 -66 -54 -126 -52 -133 4
-10 41 -13 156 -13 136 0 150 2 150 18 0 27 -127 346 -139 350 -6 2 -22 -20
-35 -50z"/>
<path d="M7193 867 c-26 -33 -155 -328 -150 -341 5 -14 29 -16 151 -16 88 0
147 4 151 10 7 11 -121 346 -135 355 -4 3 -12 -1 -17 -8z"/>
<path d="M12212 868 c-21 -26 -162 -339 -157 -349 8 -12 302 -12 309 0 6 9
-118 339 -133 354 -4 4 -13 2 -19 -5z"/>
<path d="M9093 996 c-106 -35 -166 -89 -216 -195 -26 -55 -31 -79 -35 -165 -5
-120 12 -197 65 -299 46 -88 109 -151 181 -185 47 -22 71 -26 142 -27 159 0
261 59 324 187 91 185 53 436 -91 589 -67 72 -136 102 -242 106 -54 2 -102 -2
-128 -11z"/>
<path d="M10143 992 c-160 -57 -243 -187 -243 -381 0 -105 19 -182 67 -273 46
-89 108 -152 181 -186 47 -22 71 -26 142 -27 159 0 261 59 324 187 114 232 19
562 -192 665 -74 36 -201 43 -279 15z"/>
</g>
</svg>
